# xmcd
#
# Track frame offsets:
#   150
#   11461
#   22723
#   31189
#   40850
#   52357
#   63114
#   73520
#   84106
#   94629
#   104917
#   119067
#
# Disc length: 1770 seconds
#
# Revision: 0
# Processed by: cddbd v1.4PL0 Copyright (c) Steve Scherf et al.
# Submitted via: uFREEDB 1.6.0
#
DISCID=9406e80c
DTITLE=Robbins, Marty - Marty Robbins
DYEAR=1958
DGENRE=Country
TTITLE0=Kaw-Liga
TTITLE1=Judy
TTITLE2=Nothing But Sweet Lies
TTITLE3=Oh, How I Miss You
TTITLE4=Baby I Need You
TTITLE5=Shackles And Chains
TTITLE6=Waltz Of The Wind
TTITLE7=Paper-Face
TTITLE8=Then I Turned And Walked Slowly Away
TTITLE9=Wedding Bells
TTITLE10=A House With Everything But Love
TTITLE11=The Hands You're Holding Now
EXTD=
EXTT0=
EXTT1=
EXTT2=
EXTT3=
EXTT4=
EXTT5=
EXTT6=
EXTT7=
EXTT8=
EXTT9=
EXTT10=
EXTT11=
PLAYORDER=
